<svg version="1.1" id="Layer_1" xmlns="http://www.w3.org/2000/svg" xmlns:xlink="http://www.w3.org/1999/xlink" x="0px" y="0px"
	 width="100%" viewBox="0 0 440 566" enable-background="new 0 0 440 566" xml:space="preserve">
<path fill="#000000" opacity="1.000000" stroke="none" 
	d="
M1.000000,161.000000 
	C1.000000,107.346535 1.000000,54.193069 1.000000,1.019803 
	C147.617050,1.019803 294.234100,1.019803 440.925568,1.019803 
	C440.925568,189.570160 440.925568,378.140381 440.925568,566.855286 
	C294.333435,566.855286 147.666733,566.855286 1.000000,566.855286 
	C1.000000,431.765869 1.000000,296.632935 1.000000,161.000000 
M429.012878,277.500000 
	C429.346619,269.586487 429.985107,261.671326 429.942322,253.759857 
	C429.878815,242.026382 429.116699,230.296478 429.064941,218.563232 
	C429.028198,210.237289 429.834381,201.910477 429.944672,193.579819 
	C429.998627,189.503250 429.032196,185.415451 429.054504,181.335617 
	C429.081421,176.418304 429.996368,171.500458 429.942444,166.589249 
	C429.837402,157.012695 429.275513,147.442062 428.994537,137.866287 
	C428.615631,124.951843 428.306366,112.035255 427.998444,99.118843 
	C427.650696,84.531670 427.336243,69.943703 427.012482,55.355968 
	C426.990295,54.356571 427.221069,53.301048 426.975433,52.365841 
	C425.893311,48.245426 423.943909,44.351177 419.696136,43.118103 
	C410.757996,40.523479 401.688995,38.345383 392.607513,36.288574 
	C383.969086,34.332111 375.296265,32.423733 366.548920,31.076336 
	C353.703857,29.097746 340.776154,27.658451 327.888855,25.950026 
	C313.063538,23.984674 298.272858,21.714842 283.412842,20.067198 
	C270.871460,18.676640 258.258209,17.240677 245.666565,17.143318 
	C220.424789,16.948149 195.175446,17.617872 169.930878,18.030882 
	C166.516006,18.086752 163.107788,18.697048 159.701340,19.092379 
	C148.529343,20.388920 137.352768,21.649693 126.191193,23.031143 
	C117.804970,24.069090 109.412125,25.104063 101.071892,26.448492 
	C92.954971,27.756924 84.891724,29.408909 76.822014,30.996992 
	C65.131302,33.297676 53.429661,35.554707 41.784531,38.070366 
	C35.364605,39.457237 29.106577,41.607754 22.675381,42.924820 
	C13.672029,44.768654 11.075952,48.559654 12.936543,57.688660 
	C13.584085,60.865818 14.004048,64.163368 13.948472,67.395966 
	C13.780936,77.140694 13.205485,86.878593 13.051698,96.623299 
	C12.995296,100.197189 14.010905,103.787994 13.954429,107.361870 
	C13.789966,117.769104 13.241783,128.169769 13.017580,138.576752 
	C12.860091,145.886978 12.983131,153.203323 12.986749,160.516937 
	C12.994985,177.170868 13.123285,193.825882 12.970746,210.478317 
	C12.887671,219.547256 12.052228,228.612122 12.061416,237.678329 
	C12.071623,247.750946 12.557073,257.827545 13.017665,267.894073 
	C13.574778,280.070068 14.636362,292.230438 14.904601,304.410217 
	C15.203610,317.987244 16.994516,331.226501 19.647575,344.583771 
	C22.199739,357.433105 25.576975,369.891205 30.562243,381.857330 
	C35.032822,392.588043 40.535824,402.896179 45.743736,413.310547 
	C55.171352,432.163055 67.923103,448.727325 82.484802,463.750244 
	C92.689301,474.278015 103.700851,484.134705 115.113152,493.348328 
	C125.896873,502.054474 137.435806,509.899506 149.095337,517.421448 
	C157.405930,522.782898 166.302383,527.323853 175.234985,531.610901 
	C185.757095,536.660828 196.403336,541.593323 207.376053,545.511780 
	C214.304443,547.985901 221.758835,549.176758 229.439972,547.223511 
	C248.572968,542.358337 265.817932,533.248657 282.734100,523.582703 
	C294.446228,516.890381 305.806427,509.460083 316.720764,501.529480 
	C326.730438,494.256195 336.320618,486.287537 345.371613,477.848724 
	C353.182373,470.566284 360.221405,462.401733 367.164856,454.254913 
	C381.229828,437.752289 394.497955,420.650360 402.950500,400.410431 
	C408.369843,387.433594 414.688477,374.690796 418.581818,361.257050 
	C422.653687,347.207428 424.989594,332.541779 426.809235,317.986023 
	C428.440582,304.936249 428.338959,291.669830 429.012878,277.500000 
z"/>
<path fill="#F9F7F7" opacity="1.000000" stroke="none" 
	d="
M429.007385,277.999512 
	C428.338959,291.669830 428.440582,304.936249 426.809235,317.986023 
	C424.989594,332.541779 422.653687,347.207428 418.581818,361.257050 
	C414.688477,374.690796 408.369843,387.433594 402.950500,400.410431 
	C394.497955,420.650360 381.229828,437.752289 367.164856,454.254913 
	C360.221405,462.401733 353.182373,470.566284 345.371613,477.848724 
	C336.320618,486.287537 326.730438,494.256195 316.720764,501.529480 
	C305.806427,509.460083 294.446228,516.890381 282.734100,523.582703 
	C265.817932,533.248657 248.572968,542.358337 229.439972,547.223511 
	C221.758835,549.176758 214.304443,547.985901 207.376053,545.511780 
	C196.403336,541.593323 185.757095,536.660828 175.234985,531.610901 
	C166.302383,527.323853 157.405930,522.782898 149.095337,517.421448 
	C137.435806,509.899506 125.896873,502.054474 115.113152,493.348328 
	C103.700851,484.134705 92.689301,474.278015 82.484802,463.750244 
	C67.923103,448.727325 55.171352,432.163055 45.743736,413.310547 
	C40.535824,402.896179 35.032822,392.588043 30.562243,381.857330 
	C25.576975,369.891205 22.199739,357.433105 19.647575,344.583771 
	C16.994516,331.226501 15.203610,317.987244 14.904601,304.410217 
	C14.636362,292.230438 13.574778,280.070068 13.017665,267.894073 
	C12.557073,257.827545 12.071623,247.750946 12.061416,237.678329 
	C12.052228,228.612122 12.887671,219.547256 12.970746,210.478317 
	C13.123285,193.825882 12.994985,177.170868 12.986749,160.516937 
	C12.983131,153.203323 12.860091,145.886978 13.017580,138.576752 
	C13.241783,128.169769 13.789966,117.769104 13.954429,107.361870 
	C14.010905,103.787994 12.995296,100.197189 13.051698,96.623299 
	C13.205485,86.878593 13.780936,77.140694 13.948472,67.395966 
	C14.004048,64.163368 13.584085,60.865818 12.936543,57.688660 
	C11.075952,48.559654 13.672029,44.768654 22.675381,42.924820 
	C29.106577,41.607754 35.364605,39.457237 41.784531,38.070366 
	C53.429661,35.554707 65.131302,33.297676 76.822014,30.996992 
	C84.891724,29.408909 92.954971,27.756924 101.071892,26.448492 
	C109.412125,25.104063 117.804970,24.069090 126.191193,23.031143 
	C137.352768,21.649693 148.529343,20.388920 159.701340,19.092379 
	C163.107788,18.697048 166.516006,18.086752 169.930878,18.030882 
	C195.175446,17.617872 220.424789,16.948149 245.666565,17.143318 
	C258.258209,17.240677 270.871460,18.676640 283.412842,20.067198 
	C298.272858,21.714842 313.063538,23.984674 327.888855,25.950026 
	C340.776154,27.658451 353.703857,29.097746 366.548920,31.076336 
	C375.296265,32.423733 383.969086,34.332111 392.607513,36.288574 
	C401.688995,38.345383 410.757996,40.523479 419.696136,43.118103 
	C423.943909,44.351177 425.893311,48.245426 426.975433,52.365841 
	C427.221069,53.301048 426.990295,54.356571 427.012482,55.355968 
	C427.336243,69.943703 427.650696,84.531670 427.998444,99.118843 
	C428.306366,112.035255 428.615631,124.951843 428.994537,137.866287 
	C429.275513,147.442062 429.837402,157.012695 429.942444,166.589249 
	C429.996368,171.500458 429.081421,176.418304 429.054504,181.335617 
	C429.032196,185.415451 429.998627,189.503250 429.944672,193.579819 
	C429.834381,201.910477 429.028198,210.237289 429.064941,218.563232 
	C429.116699,230.296478 429.878815,242.026382 429.942322,253.759857 
	C429.985107,261.671326 429.346619,269.586487 429.007385,277.999512 
M261.499786,360.291199 
	C267.348328,360.291199 273.196838,360.291199 280.442688,360.291199 
	C259.964447,383.398376 240.591644,405.258179 220.950699,427.420532 
	C201.185669,405.033875 181.896652,383.186340 162.607620,361.338837 
	C162.839844,360.942749 163.072052,360.546692 163.304260,360.150635 
	C174.183807,360.150635 185.063339,360.150635 195.775208,360.150635 
	C195.775208,350.707703 195.775208,341.840179 195.775208,332.721893 
	C168.488876,336.377563 141.672546,339.970276 114.050125,343.670990 
	C116.701431,333.270752 118.863785,323.870911 121.554588,314.624908 
	C122.878166,310.076874 122.129059,307.168182 118.386551,303.936920 
	C94.684914,283.473053 71.222992,262.731415 47.697475,242.063782 
	C41.364647,236.500275 35.085373,230.875809 28.287178,224.840454 
	C37.964691,219.848770 47.057491,215.158691 56.244801,210.419861 
	C49.355160,186.252594 42.549156,162.378708 35.545219,137.810516 
	C38.083267,138.431870 39.670887,138.782333 41.237442,139.209961 
	C56.973362,143.505295 72.761726,147.624176 88.401115,152.246780 
	C92.462982,153.447388 93.983345,152.171417 95.629555,148.896652 
	C100.338097,139.530136 105.292503,130.286911 110.184395,121.013214 
	C110.760971,119.920204 111.550468,118.939507 112.429237,117.625717 
	C127.053864,133.006897 141.342056,148.034241 155.630234,163.061584 
	C155.940140,162.903854 156.250046,162.746140 156.559952,162.588425 
	C149.462051,127.542755 142.364151,92.497093 135.065781,56.461636 
	C152.002319,66.068298 167.856735,75.061165 184.166092,84.312080 
	C194.133148,64.240051 203.744812,44.883724 213.639420,24.957569 
	C209.713959,24.957569 206.876785,24.803982 204.060623,24.982073 
	C183.117783,26.306463 162.123764,27.134150 141.251160,29.188173 
	C102.741570,32.977802 64.823448,40.254219 27.460785,50.385509 
	C24.448936,51.202206 23.272017,52.472630 23.268879,55.811909 
	C23.194206,135.308487 22.759298,214.805374 22.903152,294.301270 
	C22.977209,335.226898 33.160244,373.710144 53.595566,409.329498 
	C73.077637,443.287354 99.805473,470.688263 131.037872,493.791168 
	C157.151596,513.107666 185.389359,528.648987 216.425278,538.714905 
	C218.529068,539.397217 221.035324,539.946289 223.089676,539.453552 
	C228.090286,538.254150 233.069214,536.729858 237.821426,534.766479 
	C274.936157,519.432983 308.687286,498.763763 338.327087,471.489166 
	C392.988373,421.189484 420.423859,359.201447 419.843628,284.707031 
	C419.265991,210.546799 419.265076,136.382080 419.005035,62.219349 
	C418.966858,51.332695 418.929260,51.417130 408.079407,48.643143 
	C359.971893,36.343506 310.968231,30.069273 261.520538,26.791054 
	C250.961594,26.091028 240.387070,25.625673 228.730728,24.993111 
	C238.804214,45.252567 248.387939,64.527023 258.181641,84.223778 
	C274.605957,74.937851 290.496979,65.953423 307.325775,56.438812 
	C300.138306,91.871353 293.148773,126.327995 286.159241,160.784637 
	C286.557312,161.152740 286.955383,161.520859 287.353424,161.888977 
	C302.149353,147.807510 315.452057,132.188187 330.363708,117.479492 
	C336.268311,128.654617 342.025940,139.312515 347.513153,150.107895 
	C348.854706,152.747223 350.189056,153.302521 352.960449,152.491714 
	C362.226410,149.780869 371.562561,147.308945 380.879333,144.773102 
	C389.294586,142.482590 397.719757,140.228333 406.878021,137.759262 
	C399.820038,162.501694 393.031769,186.298721 386.158112,210.395035 
	C395.324677,215.145844 404.390717,219.844559 413.801605,224.722000 
	C412.720398,225.884140 412.118774,226.656189 411.395813,227.289856 
	C382.337494,252.759125 353.354736,278.316101 324.103271,303.561768 
	C319.915009,307.176453 319.028381,310.303009 320.606812,315.434113 
	C323.371216,324.420532 325.369202,333.642761 327.925903,343.701111 
	C300.049194,339.955719 273.117706,336.337341 246.106079,332.708191 
	C246.106079,342.300476 246.106079,351.176941 246.106079,360.287903 
	C251.188080,360.287903 255.844635,360.287903 261.499786,360.291199 
M209.868988,59.395927 
	C204.136139,70.680695 198.357788,81.942711 192.695602,93.262833 
	C190.763702,97.125214 187.895264,98.315071 184.099045,96.502708 
	C176.901749,93.066666 169.786530,89.455582 162.683960,85.825729 
	C159.545807,84.221939 156.521683,82.394989 152.621368,80.206825 
	C152.940262,83.260941 152.980713,85.080177 153.336960,86.835312 
	C156.384766,101.850945 159.493256,116.854248 162.576660,131.862656 
	C165.224365,144.750366 167.917023,157.629196 170.482132,170.533356 
	C171.713089,176.725876 170.091492,181.550858 166.276627,183.329865 
	C160.950943,185.813431 157.468933,182.702927 154.129868,179.152222 
	C148.080399,172.719330 142.114700,166.198776 135.858490,159.971558 
	C128.848358,152.993912 121.554695,146.301117 114.218307,139.326477 
	C114.053741,139.512756 113.387016,140.025909 113.035553,140.702759 
	C109.584641,147.348801 105.976974,153.925720 102.847061,160.721802 
	C100.792770,165.182388 97.775551,166.582855 93.234688,165.406082 
	C81.796043,162.441757 70.360069,159.467041 58.914696,156.528931 
	C57.264683,156.105362 55.568680,155.860962 53.204445,155.398880 
	C53.889389,158.095230 54.283211,159.861954 54.787434,161.596573 
	C59.202610,176.785324 63.660404,191.961716 68.055504,207.156250 
	C69.864960,213.411804 67.982910,217.701004 62.211521,220.773087 
	C58.148823,222.935684 54.069405,225.066849 48.477196,228.012955 
	C50.376625,229.106857 51.525513,229.542297 52.392063,230.300461 
	C78.471046,253.117096 104.400543,276.107239 130.689636,298.678680 
	C135.428207,302.747162 136.494308,306.594482 134.777252,312.149933 
	C133.133423,317.468567 131.935608,322.925049 130.378326,328.953613 
	C133.014038,328.741119 134.639999,328.688293 136.243118,328.468750 
	C153.735107,326.072815 171.203293,323.488800 188.721313,321.303497 
	C197.637924,320.191193 196.091049,320.761475 196.157196,312.670380 
	C196.221909,304.756073 196.171280,296.840790 196.171280,288.834717 
	C213.060013,288.834717 229.140213,288.834717 245.792236,288.834717 
	C245.792236,298.313690 245.901642,307.441101 245.729919,316.563263 
	C245.673660,319.552094 246.744217,320.615723 249.628830,320.987152 
	C263.835114,322.816345 278.013824,324.858368 292.211395,326.757050 
	C298.418732,327.587219 304.647858,328.254639 311.611206,329.084625 
	C309.857880,322.127258 308.368652,316.014557 306.766541,309.931580 
	C305.676666,305.793365 306.679016,302.682495 310.063110,299.789825 
	C330.450378,282.363129 350.724731,264.803772 370.969513,247.211288 
	C378.227112,240.904556 385.297485,234.382431 392.420746,227.987823 
	C391.915344,227.313934 391.779541,226.958740 391.525604,226.820389 
	C387.726074,224.750702 383.893341,222.741562 380.103577,220.654388 
	C374.225525,217.417114 372.462219,213.301773 374.333130,206.992157 
	C376.557617,199.490036 378.953796,192.038437 381.140747,184.525681 
	C383.913452,175.000702 386.550507,165.436234 389.454681,155.149902 
	C386.832489,155.743408 385.102264,156.084061 383.399231,156.528748 
	C372.284637,159.430939 361.162720,162.306656 350.071198,165.294876 
	C344.935425,166.678543 341.619080,165.271423 339.248199,160.218140 
	C335.758179,152.779633 331.616058,145.647095 327.400330,137.723831 
	C319.315918,146.196426 311.862488,153.997452 304.420868,161.809753 
	C298.215607,168.324112 292.166992,174.995575 285.782898,181.329269 
	C280.383881,186.685684 273.508118,184.580978 271.916443,177.192871 
	C271.441956,174.990372 271.492340,172.523178 271.928528,170.300140 
	C275.327881,152.976334 278.878052,135.682129 282.385895,118.379631 
	C284.889374,106.031197 287.399384,93.684090 290.162567,80.074997 
	C287.386536,81.533981 285.704346,82.424644 284.016357,83.304115 
	C275.758911,87.606354 267.525543,91.955849 259.231384,96.186150 
	C254.637970,98.528931 251.490143,97.161507 249.177155,92.464539 
	C242.261368,78.420647 235.107437,64.494003 228.043472,50.523113 
	C225.909012,46.301628 223.764633,42.085159 221.102539,36.836720 
	C217.127045,44.830269 213.669739,51.781872 209.868988,59.395927 
z"/>
<path fill="#020202" opacity="1.000000" stroke="none" 
	d="
M261.000488,360.289551 
	C255.844635,360.287903 251.188080,360.287903 246.106079,360.287903 
	C246.106079,351.176941 246.106079,342.300476 246.106079,332.708191 
	C273.117706,336.337341 300.049194,339.955719 327.925903,343.701111 
	C325.369202,333.642761 323.371216,324.420532 320.606812,315.434113 
	C319.028381,310.303009 319.915009,307.176453 324.103271,303.561768 
	C353.354736,278.316101 382.337494,252.759125 411.395813,227.289856 
	C412.118774,226.656189 412.720398,225.884140 413.801605,224.722000 
	C404.390717,219.844559 395.324677,215.145844 386.158112,210.395035 
	C393.031769,186.298721 399.820038,162.501694 406.878021,137.759262 
	C397.719757,140.228333 389.294586,142.482590 380.879333,144.773102 
	C371.562561,147.308945 362.226410,149.780869 352.960449,152.491714 
	C350.189056,153.302521 348.854706,152.747223 347.513153,150.107895 
	C342.025940,139.312515 336.268311,128.654617 330.363708,117.479492 
	C315.452057,132.188187 302.149353,147.807510 287.353424,161.888977 
	C286.955383,161.520859 286.557312,161.152740 286.159241,160.784637 
	C293.148773,126.327995 300.138306,91.871353 307.325775,56.438812 
	C290.496979,65.953423 274.605957,74.937851 258.181641,84.223778 
	C248.387939,64.527023 238.804214,45.252567 228.730728,24.993111 
	C240.387070,25.625673 250.961594,26.091028 261.520538,26.791054 
	C310.968231,30.069273 359.971893,36.343506 408.079407,48.643143 
	C418.929260,51.417130 418.966858,51.332695 419.005035,62.219349 
	C419.265076,136.382080 419.265991,210.546799 419.843628,284.707031 
	C420.423859,359.201447 392.988373,421.189484 338.327087,471.489166 
	C308.687286,498.763763 274.936157,519.432983 237.821426,534.766479 
	C233.069214,536.729858 228.090286,538.254150 223.089676,539.453552 
	C221.035324,539.946289 218.529068,539.397217 216.425278,538.714905 
	C185.389359,528.648987 157.151596,513.107666 131.037872,493.791168 
	C99.805473,470.688263 73.077637,443.287354 53.595566,409.329498 
	C33.160244,373.710144 22.977209,335.226898 22.903152,294.301270 
	C22.759298,214.805374 23.194206,135.308487 23.268879,55.811909 
	C23.272017,52.472630 24.448936,51.202206 27.460785,50.385509 
	C64.823448,40.254219 102.741570,32.977802 141.251160,29.188173 
	C162.123764,27.134150 183.117783,26.306463 204.060623,24.982073 
	C206.876785,24.803982 209.713959,24.957569 213.639420,24.957569 
	C203.744812,44.883724 194.133148,64.240051 184.166092,84.312080 
	C167.856735,75.061165 152.002319,66.068298 135.065781,56.461636 
	C142.364151,92.497093 149.462051,127.542755 156.559952,162.588425 
	C156.250046,162.746140 155.940140,162.903854 155.630234,163.061584 
	C141.342056,148.034241 127.053864,133.006897 112.429237,117.625717 
	C111.550468,118.939507 110.760971,119.920204 110.184395,121.013214 
	C105.292503,130.286911 100.338097,139.530136 95.629555,148.896652 
	C93.983345,152.171417 92.462982,153.447388 88.401115,152.246780 
	C72.761726,147.624176 56.973362,143.505295 41.237442,139.209961 
	C39.670887,138.782333 38.083267,138.431870 35.545219,137.810516 
	C42.549156,162.378708 49.355160,186.252594 56.244801,210.419861 
	C47.057491,215.158691 37.964691,219.848770 28.287178,224.840454 
	C35.085373,230.875809 41.364647,236.500275 47.697475,242.063782 
	C71.222992,262.731415 94.684914,283.473053 118.386551,303.936920 
	C122.129059,307.168182 122.878166,310.076874 121.554588,314.624908 
	C118.863785,323.870911 116.701431,333.270752 114.050125,343.670990 
	C141.672546,339.970276 168.488876,336.377563 195.775208,332.721893 
	C195.775208,341.840179 195.775208,350.707703 195.775208,360.150635 
	C185.063339,360.150635 174.183807,360.150635 163.304260,360.150635 
	C163.072052,360.546692 162.839844,360.942749 162.607620,361.338837 
	C181.896652,383.186340 201.185669,405.033875 220.950699,427.420532 
	C240.591644,405.258179 259.964447,383.398376 280.442688,360.291199 
	C273.196838,360.291199 267.348328,360.291199 261.000488,360.289551 
M259.500061,443.552490 
	C218.786606,443.552490 178.073151,443.552490 137.331848,443.552490 
	C137.331848,449.804504 137.331848,455.368958 137.331848,460.905212 
	C193.329620,460.905212 249.002151,460.905212 304.703339,460.905212 
	C304.703339,454.972839 304.703339,449.398254 304.703339,443.552032 
	C289.768585,443.552032 275.134369,443.552032 259.500061,443.552490 
z"/>
<path fill="#DD1936" opacity="1.000000" stroke="none" 
	d="
M210.040710,59.064697 
	C213.669739,51.781872 217.127045,44.830269 221.102539,36.836720 
	C223.764633,42.085159 225.909012,46.301628 228.043472,50.523113 
	C235.107437,64.494003 242.261368,78.420647 249.177155,92.464539 
	C251.490143,97.161507 254.637970,98.528931 259.231384,96.186150 
	C267.525543,91.955849 275.758911,87.606354 284.016357,83.304115 
	C285.704346,82.424644 287.386536,81.533981 290.162567,80.074997 
	C287.399384,93.684090 284.889374,106.031197 282.385895,118.379631 
	C278.878052,135.682129 275.327881,152.976334 271.928528,170.300140 
	C271.492340,172.523178 271.441956,174.990372 271.916443,177.192871 
	C273.508118,184.580978 280.383881,186.685684 285.782898,181.329269 
	C292.166992,174.995575 298.215607,168.324112 304.420868,161.809753 
	C311.862488,153.997452 319.315918,146.196426 327.400330,137.723831 
	C331.616058,145.647095 335.758179,152.779633 339.248199,160.218140 
	C341.619080,165.271423 344.935425,166.678543 350.071198,165.294876 
	C361.162720,162.306656 372.284637,159.430939 383.399231,156.528748 
	C385.102264,156.084061 386.832489,155.743408 389.454681,155.149902 
	C386.550507,165.436234 383.913452,175.000702 381.140747,184.525681 
	C378.953796,192.038437 376.557617,199.490036 374.333130,206.992157 
	C372.462219,213.301773 374.225525,217.417114 380.103577,220.654388 
	C383.893341,222.741562 387.726074,224.750702 391.525604,226.820389 
	C391.779541,226.958740 391.915344,227.313934 392.420746,227.987823 
	C385.297485,234.382431 378.227112,240.904556 370.969513,247.211288 
	C350.724731,264.803772 330.450378,282.363129 310.063110,299.789825 
	C306.679016,302.682495 305.676666,305.793365 306.766541,309.931580 
	C308.368652,316.014557 309.857880,322.127258 311.611206,329.084625 
	C304.647858,328.254639 298.418732,327.587219 292.211395,326.757050 
	C278.013824,324.858368 263.835114,322.816345 249.628830,320.987152 
	C246.744217,320.615723 245.673660,319.552094 245.729919,316.563263 
	C245.901642,307.441101 245.792236,298.313690 245.792236,288.834717 
	C229.140213,288.834717 213.060013,288.834717 196.171280,288.834717 
	C196.171280,296.840790 196.221909,304.756073 196.157196,312.670380 
	C196.091049,320.761475 197.637924,320.191193 188.721313,321.303497 
	C171.203293,323.488800 153.735107,326.072815 136.243118,328.468750 
	C134.639999,328.688293 133.014038,328.741119 130.378326,328.953613 
	C131.935608,322.925049 133.133423,317.468567 134.777252,312.149933 
	C136.494308,306.594482 135.428207,302.747162 130.689636,298.678680 
	C104.400543,276.107239 78.471046,253.117096 52.392063,230.300461 
	C51.525513,229.542297 50.376625,229.106857 48.477196,228.012955 
	C54.069405,225.066849 58.148823,222.935684 62.211521,220.773087 
	C67.982910,217.701004 69.864960,213.411804 68.055504,207.156250 
	C63.660404,191.961716 59.202610,176.785324 54.787434,161.596573 
	C54.283211,159.861954 53.889389,158.095230 53.204445,155.398880 
	C55.568680,155.860962 57.264683,156.105362 58.914696,156.528931 
	C70.360069,159.467041 81.796043,162.441757 93.234688,165.406082 
	C97.775551,166.582855 100.792770,165.182388 102.847061,160.721802 
	C105.976974,153.925720 109.584641,147.348801 113.035553,140.702759 
	C113.387016,140.025909 114.053741,139.512756 114.218307,139.326477 
	C121.554695,146.301117 128.848358,152.993912 135.858490,159.971558 
	C142.114700,166.198776 148.080399,172.719330 154.129868,179.152222 
	C157.468933,182.702927 160.950943,185.813431 166.276627,183.329865 
	C170.091492,181.550858 171.713089,176.725876 170.482132,170.533356 
	C167.917023,157.629196 165.224365,144.750366 162.576660,131.862656 
	C159.493256,116.854248 156.384766,101.850945 153.336960,86.835312 
	C152.980713,85.080177 152.940262,83.260941 152.621368,80.206825 
	C156.521683,82.394989 159.545807,84.221939 162.683960,85.825729 
	C169.786530,89.455582 176.901749,93.066666 184.099045,96.502708 
	C187.895264,98.315071 190.763702,97.125214 192.695602,93.262833 
	C198.357788,81.942711 204.136139,70.680695 210.040710,59.064697 
z"/>
<path fill="#FBFBFB" opacity="1.000000" stroke="none" 
	d="
M260.000122,443.552246 
	C275.134369,443.552032 289.768585,443.552032 304.703339,443.552032 
	C304.703339,449.398254 304.703339,454.972839 304.703339,460.905212 
	C249.002151,460.905212 193.329620,460.905212 137.331848,460.905212 
	C137.331848,455.368958 137.331848,449.804504 137.331848,443.552490 
	C178.073151,443.552490 218.786606,443.552490 260.000122,443.552246 
z"/>
</svg>